<svg width="31" height="30" viewBox="0 0 31 30" fill="none" xmlns="http://www.w3.org/2000/svg">
<path d="M7.75005 4.5C7.75005 6.093 6.64955 7.464 4.6485 7.464C2.76525 7.464 1.55005 6.171 1.55005 4.578C1.55005 2.943 2.72805 1.5 4.65005 1.5C6.57205 1.5 7.71285 2.865 7.75005 4.5ZM1.55005 28.5V9H7.75005V28.5H1.55005ZM10.85 15.666C10.85 13.3485 10.771 11.412 10.6919 9.7395H16.2626L16.5385 12.324H16.6563C17.4406 11.1075 19.3626 9.324 22.5804 9.324C26.505 9.324 29.45 11.8665 29.45 17.337V28.5H23.25V18.2085C23.25 15.8175 22.3092 13.9935 20.15 13.9935C18.5039 13.9935 17.6793 15.2835 17.2469 16.347C17.0888 16.728 17.05 17.259 17.05 17.7915V28.5H10.85V15.666Z" fill="#EFEFEF"/>
</svg>
