<svg width="29" height="20" viewBox="0 0 29 20" fill="none" xmlns="http://www.w3.org/2000/svg">
<path d="M11.7069 8.94026C11.7069 8.94026 14.4508 8.71751 14.4508 5.21414C14.4508 1.70623 12.2058 0 9.36027 0H0V19.5868H9.36027C9.36027 19.5868 15.0759 19.7822 15.0759 13.8044C15.0745 13.8029 15.3239 8.94026 11.7069 8.94026V8.94026ZM4.12467 3.47913H9.36027C9.36027 3.47913 10.6336 3.47913 10.6336 5.51569C10.6336 7.55528 9.88528 7.85076 9.0354 7.85076H4.12467V3.47913ZM9.09487 16.1046H4.12467V10.8692H9.36027C9.36027 10.8692 11.2573 10.842 11.2573 13.5589C11.2573 15.85 9.84032 16.0879 9.09487 16.1046V16.1046ZM22.6958 4.98079C15.7764 4.98079 15.7822 12.5073 15.7822 12.5073C15.7822 12.5073 15.3094 19.9944 22.6958 19.9944C22.6958 19.9944 28.8495 20.3793 28.8495 14.7863H25.6849C25.6849 14.7863 25.7893 16.8941 22.8017 16.8941C22.8017 16.8941 19.6342 17.1244 19.6342 13.4846H28.9496C28.951 13.4831 29.9778 4.98079 22.6958 4.98079V4.98079ZM25.5109 10.8692H19.6023C19.6023 10.8692 19.9881 7.85076 22.7669 7.85076C25.5457 7.85076 25.5109 10.8692 25.5109 10.8692V10.8692ZM26.2462 1.15011H18.825V3.5655H26.2462V1.15011Z" fill="black"/>
</svg>
