<svg width="28" height="23" viewBox="0 0 28 23" fill="none" xmlns="http://www.w3.org/2000/svg">
<path d="M18.8391 13.4299C17.7465 13.4299 16.8609 14.6197 16.8609 16.0823C16.8609 17.5478 17.7465 18.7376 18.8391 18.7376C19.9317 18.7376 20.8174 17.5478 20.8174 16.0823C20.8159 14.6197 19.9317 13.4299 18.8391 13.4299ZM25.7265 6.52551C25.9533 5.98737 25.9624 2.92955 24.7602 0C24.7602 0 22.0043 0.293398 17.8348 3.06667C16.9598 2.83077 15.4791 2.71577 14.0015 2.71577C12.5209 2.71577 11.0417 2.83077 10.1667 3.06667C5.99565 0.293398 3.23978 0 3.23978 0C2.03913 2.92955 2.0513 5.98737 2.275 6.52551C0.862826 8.01167 0 9.79712 0 12.2328C0 22.8275 9.07413 22.9971 11.3628 22.9971L14.0015 23L16.6372 22.9971C18.9289 22.9971 28 22.8275 28 12.2328C28 9.79712 27.1387 8.01167 25.7265 6.52551V6.52551ZM14.0426 21.6952H13.9574C8.21891 21.6952 3.74804 21.0332 3.74804 15.6282C3.74804 14.3322 4.21978 13.1321 5.3413 12.1354C7.20848 10.4738 10.3707 11.3526 13.9574 11.3526H14.0426C17.6293 11.3526 20.793 10.4738 22.6617 12.1354C23.7802 13.1321 24.252 14.3322 24.252 15.6282C24.252 21.0332 19.7826 21.6952 14.0426 21.6952ZM9.16239 13.4299C8.06978 13.4299 7.18413 14.6197 7.18413 16.0823C7.18413 17.5478 8.06978 18.7376 9.16239 18.7376C10.2565 18.7376 11.1422 17.5478 11.1422 16.0823C11.1422 14.6197 10.2565 13.4299 9.16239 13.4299V13.4299Z" fill="black"/>
</svg>
