<?xml version="1.0" encoding="utf-8"?>
<!-- Generator: Adobe Illustrator 23.0.0, SVG Export Plug-In . SVG Version: 6.00 Build 0)  -->
<svg version="1.1" id="Layer_1" xmlns="http://www.w3.org/2000/svg" xmlns:xlink="http://www.w3.org/1999/xlink" x="0px" y="0px"
	 viewBox="0 0 15 15" style="enable-background:new 0 0 15 15;" xml:space="preserve">
<style type="text/css">
	.Drop_x0020_Shadow{fill:none;}
	.Outer_x0020_Glow_x0020_5_x0020_pt{fill:none;}
	.Blue_x0020_Neon{fill:none;stroke:#8AACDA;stroke-width:7;stroke-linecap:round;stroke-linejoin:round;}
	.Chrome_x0020_Highlight{fill:url(#SVGID_1_);stroke:#FFFFFF;stroke-width:0.3629;stroke-miterlimit:1;}
	.Jive_GS{fill:#FFDD00;}
	.Alyssa_GS{fill:#A6D0E4;}
	.st0{fill:#009B3A;}
	.st1{fill:#FEDF00;}
	.st2{fill:#002776;}
	.st3{fill:#FFFFFF;}
</style>
<linearGradient id="SVGID_1_" gradientUnits="userSpaceOnUse" x1="0" y1="0" x2="6.123234e-17" y2="-1">
	<stop  offset="0" style="stop-color:#656565"/>
	<stop  offset="0.618" style="stop-color:#1B1B1B"/>
	<stop  offset="0.6292" style="stop-color:#545454"/>
	<stop  offset="0.9831" style="stop-color:#3E3E3E"/>
</linearGradient>
<g id="XMLID_167_">
	<g id="XMLID_171_">
		<g id="XMLID_200_">
			<path id="XMLID_254_" class="st0" d="M14.5,7.5c0,3.86-3.14,7-7,7s-7-3.14-7-7c0-3.86,3.14-7,7-7S14.5,3.64,14.5,7.5z"/>
			<polygon id="XMLID_253_" class="st1" points="7.5,11.75 0.82,7.5 7.5,3.25 14.18,7.5 			"/>
			<g id="XMLID_201_">
				<g id="XMLID_248_">
					<g id="XMLID_251_">
						<circle id="XMLID_252_" class="st2" cx="7.5" cy="7.5" r="2.81"/>
					</g>
					<g id="XMLID_249_">
						<path id="XMLID_250_" class="st3" d="M4.93,6.37C4.87,6.5,4.82,6.65,4.78,6.8c0.18-0.04,3.01-0.61,5.4,1.55
							c0.04-0.14,0.08-0.29,0.1-0.44C7.99,5.93,5.31,6.3,4.93,6.37z"/>
					</g>
				</g>
				<path id="XMLID_244_" class="st0" d="M5.21,6.49C5.2,6.47,5.19,6.46,5.18,6.45C5.17,6.44,5.16,6.43,5.15,6.42
					C5.13,6.41,5.11,6.41,5.09,6.41c-0.02,0-0.04,0-0.05,0.01C5.03,6.43,5.01,6.44,5,6.45C4.99,6.46,4.98,6.47,4.98,6.49
					C4.97,6.51,4.97,6.53,4.97,6.55s0,0.04,0.01,0.05C4.98,6.62,4.99,6.63,5,6.64c0.01,0.01,0.02,0.02,0.04,0.03
					c0.02,0.01,0.03,0.01,0.05,0.01c0.02,0,0.04,0,0.05-0.01c0.02-0.01,0.03-0.02,0.04-0.03C5.2,6.63,5.2,6.62,5.21,6.6
					c0.01-0.02,0.01-0.03,0.01-0.05S5.22,6.51,5.21,6.49z M5.16,6.58c0,0.01-0.01,0.02-0.01,0.03C5.14,6.62,5.13,6.63,5.12,6.63
					c-0.01,0-0.02,0.01-0.03,0.01c-0.01,0-0.02,0-0.03-0.01c-0.01,0-0.02-0.01-0.02-0.02C5.03,6.6,5.03,6.6,5.02,6.58
					c0-0.01-0.01-0.02-0.01-0.04c0-0.01,0-0.03,0.01-0.04c0-0.01,0.01-0.02,0.01-0.03c0.01-0.01,0.01-0.01,0.02-0.02
					c0.01,0,0.02-0.01,0.03-0.01c0.01,0,0.02,0,0.03,0.01c0.01,0,0.02,0.01,0.02,0.02C5.15,6.49,5.16,6.5,5.16,6.51
					c0,0.01,0,0.02,0,0.04C5.17,6.56,5.17,6.57,5.16,6.58z"/>
				<path id="XMLID_240_" class="st0" d="M5.52,6.57C5.52,6.56,5.51,6.55,5.5,6.54C5.5,6.54,5.49,6.53,5.48,6.53v0
					c0.02,0,0.03-0.01,0.04-0.02c0.01-0.01,0.01-0.03,0.01-0.05c0-0.02-0.01-0.03-0.01-0.04c0-0.01-0.01-0.01-0.01-0.01
					c-0.01,0-0.01-0.01-0.02-0.01c-0.01,0-0.01,0-0.02,0c-0.01,0-0.02,0-0.03,0L5.32,6.39l0.01,0.26l0.05,0l0-0.1l0.05,0
					c0.01,0,0.01,0,0.02,0c0.01,0,0.01,0,0.01,0.01c0,0,0.01,0.01,0.01,0.01c0,0,0.01,0.01,0.01,0.01L5.5,6.64l0.05,0L5.52,6.57z
					 M5.47,6.49c0,0-0.01,0.01-0.02,0.01c-0.01,0-0.01,0-0.02,0l-0.06,0l0-0.08l0.06,0c0.02,0,0.03,0,0.03,0.01
					c0.01,0.01,0.01,0.01,0.01,0.03c0,0.01,0,0.01,0,0.02C5.48,6.48,5.47,6.49,5.47,6.49z"/>
				<path id="XMLID_236_" class="st0" d="M5.85,6.4c-0.02-0.02-0.06-0.03-0.1-0.03H5.66v0.26h0.09c0.09,0,0.14-0.04,0.14-0.13
					C5.88,6.46,5.87,6.42,5.85,6.4z M5.82,6.57C5.81,6.57,5.8,6.58,5.79,6.58c-0.01,0-0.02,0.01-0.04,0.01H5.71V6.41h0.04
					c0.02,0,0.03,0,0.04,0.01c0.01,0,0.02,0.01,0.03,0.02C5.83,6.45,5.83,6.47,5.83,6.5C5.83,6.53,5.83,6.55,5.82,6.57z"/>
				<path id="XMLID_234_" class="st0" d="M6.06,6.59l0-0.07l0.13,0l0-0.04l-0.13,0l0-0.06l0.14,0l0-0.04l-0.19,0l0,0.26l0.2,0
					l0-0.04L6.06,6.59z"/>
				<path id="XMLID_232_" class="st0" d="M6.54,6.39l-0.07,0.2L6.42,6.39l-0.07,0L6.33,6.64l0.05,0l0.01-0.11l0-0.1l0.06,0.21
					l0.05,0l0.07-0.21l-0.01,0.1l0,0.11l0.05,0L6.61,6.4L6.54,6.39z"/>
				<path id="XMLID_230_" class="st0" d="M7.11,6.54L7.11,6.5L6.94,6.47L6.91,6.71l0.18,0.03l0.01-0.04L6.96,6.68l0.01-0.06
					l0.12,0.02l0.01-0.04L6.97,6.57l0.01-0.06L7.11,6.54z"/>
				<path id="XMLID_226_" class="st0" d="M7.65,6.64c0-0.01-0.01-0.01-0.01-0.02c0-0.01-0.01-0.01-0.02-0.01
					C7.62,6.6,7.61,6.6,7.6,6.59c-0.01,0-0.02-0.01-0.03-0.01l-0.1-0.03L7.41,6.8l0.05,0.01l0.03-0.09l0.05,0.01
					c0.02,0,0.03,0.01,0.04,0.01c0.01,0,0.03,0,0.04-0.01c0.01,0,0.02-0.01,0.03-0.02C7.64,6.71,7.65,6.7,7.65,6.69
					c0-0.01,0-0.02,0-0.02C7.66,6.66,7.65,6.65,7.65,6.64z M7.6,6.67c0,0.01,0,0.01-0.01,0.02c0,0-0.01,0.01-0.01,0.01
					c0,0-0.01,0-0.02,0c-0.01,0-0.01,0-0.02,0c0,0-0.01,0-0.01,0c0,0-0.01,0-0.01,0L7.49,6.69l0.02-0.08l0.03,0.01
					c0.01,0,0.02,0.01,0.02,0.01c0.01,0,0.01,0.01,0.02,0.01c0,0,0,0,0.01,0.01c0,0,0,0.01,0,0.01c0,0,0,0.01,0,0.01
					C7.6,6.67,7.6,6.67,7.6,6.67z"/>
				<path id="XMLID_222_" class="st0" d="M7.99,6.74c0-0.01,0-0.01-0.01-0.02c0-0.01-0.01-0.01-0.02-0.01
					c-0.01,0-0.01-0.01-0.02-0.01c-0.01,0-0.02-0.01-0.03-0.01L7.81,6.64L7.73,6.89l0.05,0.02l0.03-0.1l0.05,0.02
					c0.01,0,0.01,0,0.01,0.01c0,0,0.01,0.01,0.01,0.01s0.01,0.01,0.01,0.01c0,0.01,0,0.01,0,0.02l0,0.07l0.05,0.02l0-0.07
					c0-0.01,0-0.03-0.01-0.04c0-0.01-0.01-0.02-0.02-0.02l0,0c0.02,0,0.03,0,0.05-0.01C7.98,6.81,7.99,6.8,7.99,6.78
					C8,6.77,8,6.75,7.99,6.74z M7.94,6.77c0,0.01-0.01,0.01-0.01,0.02c0,0-0.01,0.01-0.01,0.01c-0.01,0-0.01,0-0.02,0
					c-0.01,0-0.01,0-0.02-0.01L7.82,6.77L7.85,6.7l0.06,0.02c0.01,0,0.02,0.01,0.03,0.02C7.95,6.75,7.95,6.76,7.94,6.77z"/>
				<path id="XMLID_218_" class="st0" d="M8.33,6.85C8.32,6.84,8.31,6.83,8.3,6.82C8.29,6.8,8.27,6.8,8.25,6.79
					C8.24,6.78,8.22,6.78,8.2,6.78c-0.02,0-0.03,0.01-0.05,0.01C8.14,6.8,8.13,6.81,8.12,6.83C8.11,6.84,8.1,6.86,8.09,6.88
					C8.08,6.89,8.08,6.91,8.08,6.93c0,0.02,0,0.03,0.01,0.05C8.1,6.99,8.11,7.01,8.12,7.02c0.01,0.01,0.03,0.02,0.05,0.03
					C8.18,7.05,8.2,7.05,8.22,7.05c0.02,0,0.03-0.01,0.05-0.01C8.28,7.03,8.29,7.02,8.3,7.01c0.01-0.01,0.02-0.03,0.03-0.05
					C8.33,6.94,8.34,6.92,8.34,6.9C8.34,6.89,8.33,6.87,8.33,6.85z M8.28,6.94c0,0.01-0.01,0.02-0.02,0.03
					C8.25,6.98,8.25,6.99,8.24,7C8.23,7,8.22,7.01,8.21,7.01c-0.01,0-0.02,0-0.03,0C8.17,7,8.16,6.99,8.15,6.99
					C8.14,6.98,8.14,6.97,8.14,6.96c0-0.01,0-0.02,0-0.03c0-0.01,0-0.02,0.01-0.04c0-0.01,0.01-0.02,0.02-0.03
					c0.01-0.01,0.02-0.02,0.02-0.02S8.2,6.83,8.21,6.83c0.01,0,0.02,0,0.03,0c0.01,0,0.02,0.01,0.03,0.02
					c0.01,0.01,0.01,0.02,0.02,0.03c0,0.01,0,0.02,0,0.03C8.28,6.92,8.28,6.93,8.28,6.94z"/>
				<path id="XMLID_216_" class="st0" d="M8.66,7.05c0-0.01,0.01-0.03,0-0.04c0-0.01,0-0.02-0.01-0.03
					C8.64,6.96,8.64,6.95,8.63,6.94C8.62,6.94,8.6,6.93,8.59,6.92C8.57,6.91,8.55,6.91,8.54,6.91c-0.02,0-0.03,0-0.05,0.01
					C8.47,6.92,8.46,6.93,8.45,6.95C8.44,6.96,8.43,6.98,8.42,6.99C8.41,7.01,8.41,7.03,8.4,7.05c0,0.02,0,0.03,0.01,0.05
					c0.01,0.01,0.01,0.03,0.03,0.04c0.01,0.01,0.03,0.02,0.04,0.03C8.5,7.18,8.51,7.18,8.52,7.18c0.01,0,0.03,0,0.04-0.01l0,0.02
					l0.03,0.01l0.05-0.13l-0.1-0.04L8.53,7.08L8.58,7.1L8.57,7.13C8.56,7.14,8.55,7.14,8.54,7.14c-0.01,0-0.02,0-0.04-0.01
					c-0.01,0-0.02-0.01-0.03-0.02C8.46,7.1,8.46,7.1,8.46,7.09c0-0.01,0-0.02,0-0.03c0-0.01,0-0.02,0.01-0.04
					C8.47,7,8.48,6.99,8.49,6.98C8.49,6.97,8.5,6.97,8.51,6.96s0.02-0.01,0.03-0.01s0.02,0,0.03,0.01c0.01,0,0.02,0.01,0.02,0.01
					c0.01,0,0.01,0.01,0.01,0.02c0,0.01,0.01,0.01,0.01,0.02c0,0.01,0,0.01,0,0.02L8.66,7.05z"/>
				<path id="XMLID_212_" class="st0" d="M8.97,7.13c0-0.01-0.01-0.01-0.01-0.02C8.95,7.11,8.94,7.1,8.94,7.1
					c-0.01,0-0.01-0.01-0.02-0.01l-0.1-0.06L8.69,7.26l0.04,0.02l0.05-0.09l0.04,0.02c0.01,0,0.01,0.01,0.01,0.01
					s0.01,0.01,0.01,0.01c0,0,0,0.01,0,0.02c0,0.01,0,0.01,0,0.02L8.83,7.34l0.05,0.03l0.01-0.07c0-0.01,0-0.03,0-0.04
					c0-0.01-0.01-0.02-0.01-0.03c0.02,0,0.03,0,0.05,0c0.01-0.01,0.03-0.02,0.03-0.03c0.01-0.01,0.01-0.03,0.01-0.04
					C8.97,7.14,8.97,7.14,8.97,7.13z M8.92,7.17c0,0.01-0.01,0.01-0.01,0.01c0,0-0.01,0.01-0.01,0.01c0,0-0.01,0-0.02,0
					c-0.01,0-0.01-0.01-0.02-0.01L8.8,7.15l0.04-0.07l0.06,0.03c0.01,0.01,0.02,0.02,0.03,0.02C8.92,7.15,8.92,7.16,8.92,7.17z"/>
				<path id="XMLID_210_" class="st0" d="M9.27,7.32L9.3,7.28l-0.17-0.1L9,7.41l0.17,0.1l0.02-0.04L9.06,7.4L9.1,7.34l0.12,0.07
					l0.02-0.04L9.12,7.3l0.03-0.06L9.27,7.32z"/>
				<path id="XMLID_208_" class="st0" d="M9.57,7.48c0-0.01-0.01-0.02-0.02-0.03C9.54,7.44,9.53,7.43,9.52,7.42
					C9.51,7.41,9.5,7.4,9.49,7.4c-0.01,0-0.02-0.01-0.03-0.01c-0.01,0-0.02,0-0.03,0.01c-0.01,0-0.02,0.01-0.02,0.02
					c0,0,0,0-0.01,0.01c0,0,0,0,0,0.01C9.39,7.44,9.38,7.45,9.38,7.46c0,0.01,0,0.02,0.01,0.03c0,0.01,0.01,0.02,0.02,0.03
					c0.01,0.01,0.02,0.02,0.03,0.03c0.01,0.01,0.01,0.01,0.02,0.02c0,0.01,0.01,0.01,0.01,0.02c0,0,0,0.01,0,0.01c0,0,0,0.01,0,0.01
					c0,0-0.01,0.01-0.01,0.01c0,0-0.01,0-0.02,0c-0.01,0-0.01,0-0.02,0c-0.01,0-0.01-0.01-0.02-0.01c-0.01,0-0.01-0.01-0.02-0.02
					C9.37,7.59,9.37,7.58,9.37,7.58c0-0.01,0-0.01,0-0.02c0-0.01,0-0.01,0.01-0.02L9.33,7.51C9.32,7.53,9.31,7.56,9.32,7.58
					C9.33,7.6,9.35,7.63,9.38,7.65C9.39,7.65,9.4,7.66,9.41,7.66c0.01,0,0.02,0.01,0.04,0.01c0.01,0,0.02,0,0.03-0.01
					C9.49,7.66,9.5,7.65,9.51,7.64c0.01-0.01,0.01-0.02,0.01-0.02c0-0.01,0-0.01,0-0.02c0-0.01,0-0.01-0.01-0.02
					c0-0.01-0.01-0.01-0.01-0.02c0-0.01-0.01-0.01-0.02-0.02C9.48,7.52,9.47,7.52,9.46,7.51C9.46,7.5,9.45,7.5,9.45,7.49
					c0-0.01-0.01-0.01-0.01-0.02c0,0,0-0.01,0-0.01c0,0,0-0.01,0-0.01c0,0,0.01-0.01,0.01-0.01c0,0,0.01,0,0.01,0
					c0.01,0,0.01,0,0.02,0c0.01,0,0.01,0.01,0.02,0.01c0.03,0.02,0.04,0.04,0.02,0.06l0.04,0.03c0.01-0.01,0.01-0.02,0.01-0.03
					S9.57,7.49,9.57,7.48z"/>
				<path id="XMLID_206_" class="st0" d="M9.86,7.67c0-0.01-0.01-0.02-0.02-0.03C9.83,7.63,9.82,7.62,9.81,7.61
					C9.8,7.6,9.79,7.59,9.77,7.59c-0.01,0-0.02-0.01-0.03-0.01c-0.01,0-0.02,0-0.03,0.01C9.7,7.6,9.7,7.6,9.69,7.61c0,0,0,0,0,0.01
					c0,0,0,0,0,0.01c0,0.01-0.01,0.02-0.01,0.03c0,0.01,0,0.02,0.01,0.03c0,0.01,0.01,0.02,0.02,0.03c0.01,0.01,0.02,0.02,0.03,0.03
					c0.01,0.01,0.01,0.01,0.02,0.02c0,0.01,0.01,0.01,0.01,0.02c0,0,0,0.01,0,0.01c0,0,0,0.01,0,0.01c0,0-0.01,0.01-0.01,0.01
					c-0.01,0-0.01,0-0.02,0c-0.01,0-0.01,0-0.02,0c-0.01,0-0.01-0.01-0.02-0.01c-0.01,0-0.01-0.01-0.02-0.02
					c0-0.01-0.01-0.01-0.01-0.02c0-0.01,0-0.01,0-0.02c0-0.01,0-0.01,0.01-0.02L9.62,7.7C9.6,7.72,9.6,7.75,9.61,7.77
					c0.01,0.02,0.03,0.05,0.06,0.07C9.68,7.84,9.69,7.85,9.7,7.85c0.01,0,0.02,0.01,0.04,0.01c0.01,0,0.02,0,0.03-0.01
					C9.78,7.85,9.79,7.84,9.8,7.83C9.8,7.82,9.81,7.81,9.81,7.8c0-0.01,0-0.01,0-0.02c0-0.01,0-0.01-0.01-0.02
					c0-0.01-0.01-0.01-0.01-0.02C9.78,7.74,9.78,7.73,9.77,7.72C9.77,7.72,9.76,7.71,9.75,7.7C9.75,7.69,9.74,7.69,9.74,7.68
					c0-0.01-0.01-0.01-0.01-0.02c0,0,0-0.01,0-0.01c0,0,0-0.01,0-0.01c0,0,0.01-0.01,0.01-0.01c0,0,0.01,0,0.01,0s0.01,0,0.02,0
					c0.01,0,0.01,0.01,0.02,0.01c0.03,0.02,0.04,0.04,0.02,0.06l0.04,0.03C9.86,7.72,9.86,7.71,9.86,7.7
					C9.86,7.69,9.86,7.68,9.86,7.67z"/>
				<path id="XMLID_202_" class="st0" d="M10.14,7.9c0-0.02-0.01-0.03-0.02-0.04c-0.01-0.01-0.02-0.03-0.04-0.04
					c-0.02-0.01-0.03-0.02-0.05-0.02c-0.02,0-0.03,0-0.05,0c-0.02,0-0.03,0.01-0.04,0.02C9.93,7.84,9.92,7.85,9.91,7.87
					C9.9,7.88,9.89,7.9,9.88,7.92c0,0.02,0,0.03,0,0.05C9.89,7.98,9.89,8,9.9,8.01c0.01,0.01,0.02,0.03,0.04,0.04
					c0.02,0.01,0.03,0.02,0.05,0.02c0.02,0,0.03,0,0.05,0c0.02,0,0.03-0.01,0.04-0.02C10.1,8.03,10.11,8.02,10.12,8
					c0.01-0.02,0.02-0.03,0.02-0.05C10.14,7.93,10.14,7.91,10.14,7.9z M10.09,7.94c0,0.01-0.01,0.02-0.02,0.03
					C10.07,7.98,10.06,7.99,10.05,8c-0.01,0.01-0.02,0.01-0.03,0.02c-0.01,0-0.02,0-0.03,0c-0.01,0-0.02,0-0.03-0.01
					C9.95,8.01,9.95,8,9.94,7.99C9.94,7.98,9.93,7.97,9.93,7.96c0-0.01,0-0.02,0-0.03S9.94,7.9,9.95,7.89
					c0.01-0.01,0.02-0.02,0.02-0.03C9.98,7.86,9.99,7.85,10,7.85c0.01,0,0.02,0,0.03,0c0.01,0,0.02,0,0.03,0.01
					c0.01,0.01,0.02,0.01,0.02,0.02c0.01,0.01,0.01,0.02,0.01,0.03C10.09,7.92,10.09,7.93,10.09,7.94z"/>
			</g>
		</g>
		<g id="XMLID_172_">
			<polygon id="XMLID_199_" class="st3" points="8.37,6.51 8.4,6.59 8.49,6.59 8.42,6.64 8.44,6.72 8.37,6.67 8.3,6.72 8.33,6.64 
				8.26,6.59 8.35,6.59 			"/>
			<polygon id="XMLID_198_" class="st3" points="8.26,7.26 8.29,7.33 8.35,7.33 8.3,7.36 8.32,7.43 8.26,7.39 8.21,7.43 8.23,7.36 
				8.18,7.33 8.24,7.33 			"/>
			<polygon id="XMLID_197_" class="st3" points="7.5,7.85 7.52,7.92 7.6,7.92 7.54,7.97 7.56,8.04 7.5,7.99 7.44,8.04 7.46,7.97 
				7.4,7.92 7.48,7.92 			"/>
			<polygon id="XMLID_196_" class="st3" points="6.43,7.5 6.46,7.58 6.54,7.58 6.47,7.62 6.5,7.7 6.43,7.65 6.37,7.7 6.39,7.62 
				6.33,7.58 6.41,7.58 			"/>
			<polygon id="XMLID_195_" class="st3" points="5.45,8.05 5.48,8.14 5.57,8.14 5.5,8.19 5.52,8.27 5.45,8.22 5.38,8.27 5.41,8.19 
				5.34,8.14 5.43,8.14 			"/>
			<polygon id="XMLID_194_" class="st3" points="5.11,8.32 5.13,8.39 5.21,8.39 5.14,8.44 5.17,8.51 5.11,8.47 5.04,8.51 5.07,8.44 
				5,8.39 5.08,8.39 			"/>
			<polygon id="XMLID_193_" class="st3" points="6.37,8.88 6.4,8.96 6.49,8.96 6.42,9.01 6.44,9.09 6.37,9.04 6.3,9.09 6.33,9.01 
				6.26,8.96 6.35,8.96 			"/>
			<polygon id="XMLID_192_" class="st3" points="5.96,8.65 5.98,8.71 6.04,8.71 5.99,8.75 6.01,8.81 5.96,8.77 5.91,8.81 5.93,8.75 
				5.87,8.71 5.94,8.71 			"/>
			<polygon id="XMLID_191_" class="st3" points="6.04,8.36 6.06,8.43 6.13,8.43 6.07,8.47 6.1,8.54 6.04,8.49 5.98,8.54 6,8.47 
				5.94,8.43 6.02,8.43 			"/>
			<polygon id="XMLID_190_" class="st3" points="5.73,7.93 5.75,7.98 5.8,7.98 5.76,8.01 5.77,8.06 5.73,8.03 5.69,8.06 5.7,8.01 
				5.66,7.98 5.71,7.98 			"/>
			<polygon id="XMLID_189_" class="st3" points="5.2,6.85 5.23,6.95 5.33,6.95 5.25,7 5.28,7.1 5.2,7.04 5.12,7.1 5.15,7 5.08,6.95 
				5.17,6.95 			"/>
			<polygon id="XMLID_188_" class="st3" points="7.83,8.11 7.85,8.18 7.92,8.18 7.86,8.22 7.89,8.29 7.83,8.25 7.77,8.29 7.79,8.22 
				7.73,8.18 7.8,8.18 			"/>
			<polygon id="XMLID_187_" class="st3" points="7.5,8.65 7.53,8.73 7.62,8.73 7.55,8.78 7.57,8.86 7.5,8.81 7.43,8.86 7.46,8.78 
				7.39,8.73 7.48,8.73 			"/>
			<polygon id="XMLID_186_" class="st3" points="8.35,9.28 8.37,9.36 8.45,9.36 8.39,9.41 8.41,9.49 8.35,9.44 8.28,9.49 8.3,9.41 
				8.24,9.36 8.32,9.36 			"/>
			<polygon id="XMLID_185_" class="st3" points="9.47,8.38 9.5,8.45 9.58,8.45 9.51,8.5 9.54,8.58 9.47,8.53 9.4,8.58 9.43,8.5 
				9.36,8.45 9.44,8.45 			"/>
			<polygon id="XMLID_184_" class="st3" points="9.59,8.64 9.61,8.7 9.68,8.7 9.62,8.75 9.65,8.82 9.59,8.77 9.53,8.82 9.55,8.75 
				9.49,8.7 9.57,8.7 			"/>
			<polygon id="XMLID_183_" class="st3" points="9.86,8.42 9.89,8.48 9.95,8.48 9.9,8.52 9.92,8.58 9.86,8.55 9.81,8.58 9.83,8.52 
				9.78,8.48 9.84,8.48 			"/>
			<polygon id="XMLID_182_" class="st3" points="9.42,8.86 9.44,8.93 9.51,8.93 9.45,8.97 9.47,9.04 9.42,9 9.36,9.04 9.38,8.97 
				9.32,8.93 9.39,8.93 			"/>
			<polygon id="XMLID_181_" class="st3" points="8.91,9.22 8.94,9.29 9.01,9.29 8.95,9.34 8.98,9.41 8.91,9.37 8.85,9.41 8.87,9.34 
				8.81,9.29 8.89,9.29 			"/>
			<polygon id="XMLID_180_" class="st3" points="8.58,9.05 8.6,9.12 8.67,9.12 8.61,9.15 8.63,9.22 8.58,9.18 8.53,9.22 8.55,9.15 
				8.49,9.12 8.56,9.12 			"/>
			<polygon id="XMLID_179_" class="st3" points="8.9,8.96 8.91,9.02 8.97,9.02 8.93,9.05 8.94,9.11 8.9,9.07 8.85,9.11 8.87,9.05 
				8.82,9.02 8.88,9.02 			"/>
			<polygon id="XMLID_178_" class="st3" points="9.19,9.02 9.21,9.08 9.27,9.08 9.22,9.11 9.24,9.16 9.19,9.13 9.14,9.16 9.16,9.11 
				9.11,9.08 9.17,9.08 			"/>
			<polygon id="XMLID_177_" class="st3" points="8.9,9.53 8.92,9.59 8.98,9.59 8.93,9.62 8.95,9.67 8.9,9.64 8.86,9.67 8.88,9.62 
				8.83,9.59 8.89,9.59 			"/>
			<polygon id="XMLID_176_" class="st3" points="8.12,8.98 8.14,9.05 8.2,9.05 8.15,9.08 8.17,9.15 8.12,9.11 8.06,9.15 8.09,9.08 
				8.03,9.05 8.1,9.05 			"/>
			<polygon id="XMLID_175_" class="st3" points="7.5,9.66 7.51,9.69 7.55,9.69 7.52,9.71 7.53,9.74 7.5,9.72 7.48,9.74 7.49,9.71 
				7.46,9.69 7.49,9.69 			"/>
			<polygon id="XMLID_174_" class="st3" points="7.21,8.11 7.23,8.18 7.3,8.18 7.25,8.22 7.27,8.28 7.21,8.24 7.16,8.28 7.18,8.22 
				7.13,8.18 7.19,8.18 			"/>
			<polygon id="XMLID_173_" class="st3" points="7.36,8.33 7.37,8.38 7.42,8.38 7.38,8.41 7.4,8.46 7.36,8.43 7.32,8.46 7.33,8.41 
				7.3,8.38 7.34,8.38 			"/>
		</g>
	</g>
</g>
</svg>
