<?xml version="1.0" encoding="utf-8"?>
<!-- Generator: Adobe Illustrator 23.0.0, SVG Export Plug-In . SVG Version: 6.00 Build 0)  -->
<svg version="1.1" id="Layer_1" xmlns="http://www.w3.org/2000/svg" xmlns:xlink="http://www.w3.org/1999/xlink" x="0px" y="0px"
	 viewBox="0 0 150 150" style="enable-background:new 0 0 150 150;" xml:space="preserve">
<style type="text/css">
	.Drop_x0020_Shadow{fill:none;}
	.Outer_x0020_Glow_x0020_5_x0020_pt{fill:none;}
	.Blue_x0020_Neon{fill:none;stroke:#8AACDA;stroke-width:7;stroke-linecap:round;stroke-linejoin:round;}
	.Chrome_x0020_Highlight{fill:url(#SVGID_1_);stroke:#FFFFFF;stroke-width:0.3629;stroke-miterlimit:1;}
	.Jive_GS{fill:#FFDD00;}
	.Alyssa_GS{fill:#A6D0E4;}
	.st0{fill:#1D1D1E;}
	.st1{fill:#E6E6E6;}
</style>
<linearGradient id="SVGID_1_" gradientUnits="userSpaceOnUse" x1="0" y1="0" x2="6.123234e-17" y2="-1">
	<stop  offset="0" style="stop-color:#656565"/>
	<stop  offset="0.618" style="stop-color:#1B1B1B"/>
	<stop  offset="0.6292" style="stop-color:#545454"/>
	<stop  offset="0.9831" style="stop-color:#3E3E3E"/>
</linearGradient>
<g>
	<ellipse transform="matrix(0.7071 -0.7071 0.7071 0.7071 -31.066 75)" class="st0" cx="75" cy="75" rx="67.13" ry="67.13"/>
	<path class="st1" d="M104.08,89.39c-0.64-0.83-1.78-1.27-2.82-0.96c-1.42,0.43-2.87,0.75-4.34,0.97c-1.18,0.14-2.36,0.21-3.55,0.22
		c-1.2,0-2.4-0.08-3.59-0.22c-2.34-0.35-4.62-0.97-6.81-1.86c-2.11-0.92-4.11-2.09-5.95-3.48c-1.8-1.43-3.44-3.06-4.87-4.87
		c-1.39-1.84-2.55-3.84-3.48-5.95c-0.89-2.19-1.51-4.47-1.86-6.81c-0.29-2.39-0.29-4.82,0-7.21c0.35-2.35,0.98-4.64,1.88-6.84
		c0.73-1.66,1.6-3.24,2.62-4.74c0.09-0.21,0.18-0.43,0.27-0.64c0.03-0.24,0.06-0.47,0.1-0.71c0-0.6-0.22-1.16-0.58-1.62
		c-0.64-0.82-1.79-1.28-2.82-0.96c-1.96,0.6-3.87,1.39-5.69,2.34c-1.8,0.95-3.47,2.09-5.07,3.35c-3.01,2.37-5.58,5.35-7.54,8.63
		c-2,3.35-3.41,7.12-4.04,10.97c-0.34,2.11-0.53,4.23-0.46,6.36c0.06,2.04,0.32,4.08,0.75,6.07c0.79,3.64,2.26,7.18,4.28,10.31
		c1.05,1.63,2.25,3.18,3.56,4.6c1.32,1.43,2.79,2.69,4.34,3.87c2.95,2.25,6.35,3.94,9.9,5.02c3.77,1.15,7.82,1.59,11.74,1.27
		c4.45-0.36,8.74-1.59,12.68-3.68c3.6-1.91,6.89-4.57,9.49-7.71c0.73-0.88,1.43-1.8,2.07-2.74c0.09-0.21,0.18-0.43,0.27-0.64
		c0.03-0.24,0.06-0.47,0.1-0.71C104.65,90.41,104.44,89.85,104.08,89.39z M88,99.16c-2.18,0.89-4.47,1.51-6.8,1.86
		c-2.39,0.29-4.8,0.29-7.19,0c-2.34-0.35-4.62-0.97-6.81-1.86c-2.11-0.92-4.11-2.09-5.95-3.48c-1.8-1.43-3.44-3.06-4.87-4.87
		c-1.39-1.84-2.55-3.84-3.48-5.95c-0.89-2.19-1.51-4.47-1.86-6.81c-0.29-2.39-0.29-4.8,0-7.19c0.35-2.34,0.97-4.63,1.86-6.82
		c0.92-2.11,2.09-4.1,3.47-5.94c1.43-1.8,3.06-3.43,4.85-4.86c0.62-0.46,1.25-0.9,1.9-1.32c-0.01,0.02-0.02,0.04-0.02,0.06
		c-0.94,2.56-1.48,5.22-1.74,7.93c-0.22,2.25-0.18,4.52,0.11,6.76c0.29,2.21,0.72,4.37,1.45,6.48c1.41,4.09,3.6,7.83,6.47,11.07
		c2.69,3.04,6.03,5.59,9.67,7.38c4,1.96,8.31,3.09,12.76,3.32c0.51,0.03,1.03,0.04,1.54,0.04c0.5,0,1.01-0.02,1.51-0.04
		c-0.29,0.25-0.59,0.5-0.9,0.74C92.13,97.06,90.12,98.23,88,99.16z"/>
</g>
</svg>
