<?xml version="1.0" encoding="utf-8"?>
<!-- Generator: Adobe Illustrator 23.0.0, SVG Export Plug-In . SVG Version: 6.00 Build 0)  -->
<svg version="1.1" id="Layer_1" xmlns="http://www.w3.org/2000/svg" xmlns:xlink="http://www.w3.org/1999/xlink" x="0px" y="0px"
	 viewBox="0 0 150 150" style="enable-background:new 0 0 150 150;" xml:space="preserve">
<style type="text/css">
	.Drop_x0020_Shadow{fill:none;}
	.Outer_x0020_Glow_x0020_5_x0020_pt{fill:none;}
	.Blue_x0020_Neon{fill:none;stroke:#8AACDA;stroke-width:7;stroke-linecap:round;stroke-linejoin:round;}
	.Chrome_x0020_Highlight{fill:url(#SVGID_1_);stroke:#FFFFFF;stroke-width:0.3629;stroke-miterlimit:1;}
	.Jive_GS{fill:#FFDD00;}
	.Alyssa_GS{fill:#A6D0E4;}
	.st0{fill:#F2F2F2;}
	.st1{fill:#CCCCCC;}
</style>
<linearGradient id="SVGID_1_" gradientUnits="userSpaceOnUse" x1="0" y1="0" x2="6.123234e-17" y2="-1">
	<stop  offset="0" style="stop-color:#656565"/>
	<stop  offset="0.618" style="stop-color:#1B1B1B"/>
	<stop  offset="0.6292" style="stop-color:#545454"/>
	<stop  offset="0.9831" style="stop-color:#3E3E3E"/>
</linearGradient>
<g>
	<g>
		<circle class="st0" cx="75" cy="75" r="67.13"/>
	</g>
	<g>
		<path class="st1" d="M91.82,75.3c-0.01-3.39-1.03-6.84-3-9.61c-0.54-0.76-1.13-1.5-1.78-2.17c-0.65-0.68-1.38-1.26-2.12-1.83
			c-1.33-1.01-2.81-1.76-4.37-2.33c-1.62-0.6-3.38-0.9-5.1-0.97c-1.73-0.07-3.51,0.16-5.17,0.63c-3.18,0.91-6.17,2.79-8.28,5.35
			c-0.59,0.71-1.15,1.46-1.63,2.25c-0.49,0.81-0.87,1.67-1.23,2.55c-0.66,1.59-0.99,3.29-1.12,5c-0.14,1.73,0.04,3.52,0.45,5.21
			c0.39,1.62,1.06,3.22,1.92,4.65c1.71,2.82,4.28,5.22,7.29,6.58c0.87,0.39,1.75,0.75,2.67,1.01c0.93,0.26,1.88,0.4,2.84,0.52
			c1.75,0.21,3.54,0.07,5.27-0.28c1.63-0.33,3.23-0.96,4.69-1.76c1.45-0.8,2.81-1.85,3.95-3.05c2.3-2.41,3.96-5.55,4.47-8.85
			C91.7,77.22,91.81,76.26,91.82,75.3z M86.37,76.85c-0.16,1.01-0.43,1.99-0.8,2.94c-0.4,0.88-0.89,1.72-1.45,2.51
			c-0.66,0.82-1.4,1.56-2.22,2.22c-0.79,0.57-1.62,1.05-2.51,1.45c-0.95,0.37-1.93,0.64-2.94,0.8c-1.03,0.11-2.07,0.11-3.11,0
			c-1.01-0.16-1.99-0.43-2.94-0.8c-0.88-0.4-1.72-0.89-2.51-1.45c-0.82-0.66-1.56-1.4-2.22-2.22c-0.57-0.79-1.05-1.62-1.45-2.51
			c-0.37-0.95-0.64-1.93-0.8-2.94c-0.11-1.03-0.11-2.07,0-3.11c0.16-1.01,0.43-1.99,0.8-2.94c0.4-0.88,0.89-1.72,1.45-2.51
			c0.66-0.82,1.4-1.56,2.22-2.22c0.79-0.57,1.62-1.05,2.51-1.45c0.95-0.37,1.93-0.64,2.94-0.8c1.03-0.11,2.07-0.11,3.11,0
			c1.01,0.16,1.99,0.43,2.94,0.8c0.88,0.4,1.72,0.89,2.51,1.45c0.82,0.66,1.56,1.4,2.22,2.22c0.57,0.79,1.05,1.62,1.45,2.51
			c0.37,0.95,0.64,1.94,0.8,2.94c0.06,0.52,0.08,1.03,0.09,1.55C86.45,75.81,86.43,76.33,86.37,76.85z"/>
		<path class="st1" d="M74.89,55.18c1.45-0.07,2.68-1.18,2.68-2.68c0-1.23,0-2.45,0-3.68c0-1.97,0-3.93,0-5.9c0-0.45,0-0.9,0-1.35
			c0-0.69-0.3-1.41-0.78-1.89c-0.46-0.46-1.23-0.81-1.89-0.78c-1.45,0.07-2.68,1.18-2.68,2.68c0,1.23,0,2.45,0,3.68
			c0,1.97,0,3.93,0,5.9c0,0.45,0,0.9,0,1.35c0,0.69,0.3,1.41,0.78,1.89C73.46,54.86,74.22,55.21,74.89,55.18z"/>
		<path class="st1" d="M74.89,95.41c-1.45,0.07-2.68,1.18-2.68,2.68c0,1.23,0,2.45,0,3.68c0,1.97,0,3.93,0,5.9c0,0.45,0,0.9,0,1.35
			c0,0.69,0.3,1.41,0.78,1.89c0.46,0.46,1.23,0.81,1.89,0.78c1.45-0.07,2.68-1.18,2.68-2.68c0-1.23,0-2.45,0-3.68
			c0-1.97,0-3.93,0-5.9c0-0.45,0-0.9,0-1.35c0-0.69-0.3-1.41-0.78-1.89C76.32,95.73,75.56,95.38,74.89,95.41z"/>
		<path class="st1" d="M51.75,55.95c1.39,1.39,2.78,2.78,4.17,4.17c0.32,0.32,0.63,0.63,0.95,0.95c0.49,0.49,1.21,0.78,1.89,0.78
			c0.66,0,1.44-0.29,1.89-0.78c0.47-0.51,0.82-1.18,0.78-1.89c-0.03-0.71-0.27-1.38-0.78-1.89c-0.87-0.87-1.73-1.73-2.6-2.6
			c-1.39-1.39-2.78-2.78-4.17-4.17c-0.32-0.32-0.63-0.63-0.95-0.95c-0.49-0.49-1.21-0.78-1.89-0.78c-0.66,0-1.44,0.29-1.89,0.78
			c-0.47,0.51-0.82,1.18-0.78,1.89c0.03,0.71,0.27,1.38,0.78,1.89C50.02,54.21,50.88,55.08,51.75,55.95z"/>
		<path class="st1" d="M98.02,94.64c-1.39-1.39-2.78-2.78-4.17-4.17c-0.32-0.32-0.63-0.63-0.95-0.95c-0.49-0.49-1.21-0.78-1.89-0.78
			c-0.66,0-1.44,0.29-1.89,0.78c-0.47,0.51-0.82,1.18-0.78,1.89c0.03,0.71,0.27,1.38,0.78,1.89c0.87,0.87,1.73,1.73,2.6,2.6
			c1.39,1.39,2.78,2.78,4.17,4.17c0.32,0.32,0.63,0.63,0.95,0.95c0.49,0.49,1.21,0.78,1.89,0.78c0.66,0,1.44-0.29,1.89-0.78
			c0.47-0.51,0.82-1.18,0.78-1.89c-0.03-0.71-0.27-1.38-0.78-1.89C99.76,96.38,98.89,95.51,98.02,94.64z"/>
		<path class="st1" d="M52.09,77.98c0.69,0,1.41-0.3,1.89-0.78c0.46-0.46,0.81-1.23,0.78-1.89c-0.07-1.45-1.18-2.68-2.68-2.68
			c-1.23,0-2.45,0-3.68,0c-1.97,0-3.93,0-5.9,0c-0.45,0-0.9,0-1.35,0c-0.69,0-1.41,0.3-1.89,0.78c-0.46,0.46-0.81,1.23-0.78,1.89
			c0.07,1.45,1.18,2.68,2.68,2.68c1.23,0,2.45,0,3.68,0c1.97,0,3.93,0,5.9,0C51.19,77.98,51.64,77.98,52.09,77.98z"/>
		<path class="st1" d="M108.61,72.62c-1.23,0-2.45,0-3.68,0c-1.97,0-3.93,0-5.9,0c-0.45,0-0.9,0-1.35,0c-0.69,0-1.41,0.3-1.89,0.78
			c-0.46,0.46-0.81,1.23-0.78,1.89c0.07,1.45,1.18,2.68,2.68,2.68c1.23,0,2.45,0,3.68,0c1.97,0,3.93,0,5.9,0c0.45,0,0.9,0,1.35,0
			c0.69,0,1.41-0.3,1.89-0.78c0.46-0.46,0.81-1.23,0.78-1.89C111.22,73.84,110.11,72.62,108.61,72.62z"/>
		<path class="st1" d="M58.77,88.74c-0.71,0.03-1.38,0.27-1.89,0.78c-0.87,0.87-1.73,1.73-2.6,2.6c-1.39,1.39-2.78,2.78-4.17,4.17
			c-0.32,0.32-0.63,0.63-0.95,0.95c-0.49,0.49-0.78,1.21-0.78,1.89c0,0.66,0.29,1.44,0.78,1.89c0.51,0.47,1.18,0.82,1.89,0.78
			c0.71-0.03,1.38-0.27,1.89-0.78c0.87-0.87,1.73-1.73,2.6-2.6c1.39-1.39,2.78-2.78,4.17-4.17c0.32-0.32,0.63-0.63,0.95-0.95
			c0.49-0.49,0.78-1.21,0.78-1.89c0-0.66-0.29-1.44-0.78-1.89C60.15,89.05,59.48,88.7,58.77,88.74z"/>
		<path class="st1" d="M91.01,61.86c0.71-0.03,1.38-0.27,1.89-0.78c0.87-0.87,1.73-1.73,2.6-2.6c1.39-1.39,2.78-2.78,4.17-4.17
			c0.32-0.32,0.63-0.63,0.95-0.95c0.49-0.49,0.78-1.21,0.78-1.89c0-0.66-0.29-1.44-0.78-1.89c-0.51-0.47-1.18-0.82-1.89-0.78
			c-0.71,0.03-1.38,0.27-1.89,0.78c-0.87,0.87-1.73,1.73-2.6,2.6c-1.39,1.39-2.78,2.78-4.17,4.17c-0.32,0.32-0.63,0.63-0.95,0.95
			c-0.49,0.49-0.78,1.21-0.78,1.89c0,0.66,0.29,1.44,0.78,1.89C89.62,61.54,90.29,61.89,91.01,61.86z"/>
	</g>
</g>
</svg>
