<?xml version="1.0" encoding="utf-8"?>
<!-- Generator: Adobe Illustrator 23.0.0, SVG Export Plug-In . SVG Version: 6.00 Build 0)  -->
<svg version="1.1" id="Layer_1" xmlns="http://www.w3.org/2000/svg" xmlns:xlink="http://www.w3.org/1999/xlink" x="0px" y="0px"
	 viewBox="0 0 511 690" style="enable-background:new 0 0 511 690;" xml:space="preserve">
<style type="text/css">
	.Drop_x0020_Shadow{fill:none;}
	.Outer_x0020_Glow_x0020_5_x0020_pt{fill:none;}
	.Blue_x0020_Neon{fill:none;stroke:#8AACDA;stroke-width:7;stroke-linecap:round;stroke-linejoin:round;}
	.Chrome_x0020_Highlight{fill:url(#SVGID_1_);stroke:#FFFFFF;stroke-width:0.3629;stroke-miterlimit:1;}
	.Jive_GS{fill:#FFDD00;}
	.Alyssa_GS{fill:#A6D0E4;}
	.st0{opacity:0.27;}
	.st1{fill:none;stroke:#020202;stroke-miterlimit:10;}
	.st2{opacity:0.53;}
	.st3{opacity:0.12;}
	.st4{opacity:0.4;}
	.st5{opacity:0.48;}
	.st6{opacity:0.1;}
	.st7{opacity:0.19;}
	.st8{opacity:0.35;}
	.st9{opacity:0.52;}
	.st10{opacity:0.45;}
	.st11{opacity:0.57;}
</style>
<linearGradient id="SVGID_1_" gradientUnits="userSpaceOnUse" x1="-804" y1="-183" x2="-804" y2="-184">
	<stop  offset="0" style="stop-color:#656565"/>
	<stop  offset="0.618" style="stop-color:#1B1B1B"/>
	<stop  offset="0.6292" style="stop-color:#545454"/>
	<stop  offset="0.9831" style="stop-color:#3E3E3E"/>
</linearGradient>
<g>
	<g class="st0">
		<g>
			<polygon class="st1" points="239.99,22.88 178.01,22.88 147.02,76.56 178.01,130.23 239.99,130.23 270.98,76.56 			"/>
		</g>
	</g>
	<g class="st2">
		<g>
			<polygon class="st1" points="332.93,76.56 270.95,76.56 239.96,130.23 270.95,183.91 332.93,183.91 363.92,130.23 			"/>
		</g>
	</g>
	<g class="st0">
		<g>
			<polygon class="st1" points="146.47,76.56 84.49,76.56 53.5,130.23 84.49,183.91 146.47,183.91 177.46,130.23 			"/>
		</g>
	</g>
	<g class="st3">
		<g>
			<polygon class="st1" points="239.99,130.23 178.01,130.23 147.02,183.91 178.01,237.59 239.99,237.59 270.98,183.91 			"/>
		</g>
	</g>
	<g class="st0">
		<g>
			<polygon class="st1" points="332.93,183.91 270.95,183.91 239.96,237.59 270.95,291.26 332.93,291.26 363.92,237.59 			"/>
		</g>
	</g>
	<g class="st4">
		<g>
			<polygon class="st1" points="426.51,237.59 364.53,237.59 333.54,291.26 364.53,344.94 426.51,344.94 457.5,291.26 			"/>
		</g>
	</g>
	<g class="st5">
		<g>
			<polygon class="st1" points="239.99,237.59 178.01,237.59 147.02,291.26 178.01,344.94 239.99,344.94 270.98,291.26 			"/>
		</g>
	</g>
	<g class="st6">
		<g>
			<polygon class="st1" points="333.51,291.26 271.52,291.26 240.54,344.94 271.52,398.62 333.51,398.62 364.5,344.94 			"/>
		</g>
	</g>
	<g class="st7">
		<g>
			<polygon class="st1" points="426.51,344.94 364.53,344.94 333.54,398.62 364.53,452.29 426.51,452.29 457.5,398.62 			"/>
		</g>
	</g>
	<g class="st8">
		<g>
			<polygon class="st1" points="333.51,398.62 271.52,398.62 240.54,452.29 271.52,505.97 333.51,505.97 364.5,452.29 			"/>
		</g>
	</g>
	<g class="st9">
		<g>
			<polygon class="st1" points="426.51,452.29 364.53,452.29 333.54,505.97 364.53,559.65 426.51,559.65 457.5,505.97 			"/>
		</g>
	</g>
	<g class="st0">
		<g>
			<polygon class="st1" points="426.51,559.65 364.53,559.65 333.54,613.32 364.53,667 426.51,667 457.5,613.32 			"/>
		</g>
	</g>
	<g class="st0">
		<g>
			<polygon class="st1" points="333.51,505.97 271.52,505.97 240.54,559.65 271.52,613.32 333.51,613.32 364.5,559.65 			"/>
		</g>
	</g>
	<g class="st6">
		<g>
			<polygon class="st1" points="239.99,452.29 178.01,452.29 147.02,505.97 178.01,559.65 239.99,559.65 270.98,505.97 			"/>
		</g>
	</g>
	<g class="st10">
		<g>
			<polygon class="st1" points="239.99,559.65 178.01,559.65 147.02,613.32 178.01,667 239.99,667 270.98,613.32 			"/>
		</g>
	</g>
	<g class="st11">
		<g>
			<polygon class="st1" points="147.02,398.61 85.04,398.61 54.05,452.29 85.04,505.97 147.02,505.97 178.01,452.29 			"/>
		</g>
	</g>
	<g class="st0">
		<g>
			<polygon class="st1" points="147.02,291.26 85.04,291.26 54.05,344.94 85.04,398.61 147.02,398.61 178.01,344.94 			"/>
		</g>
	</g>
	<g class="st7">
		<g>
			<polygon class="st1" points="239.99,344.94 178.01,344.94 147.02,398.61 178.01,452.29 239.99,452.29 270.98,398.61 			"/>
		</g>
	</g>
</g>
<g>
	<g class="st0">
		<g>
			<polygon class="st1" points="239.99,22.88 178.01,22.88 147.02,76.56 178.01,130.23 239.99,130.23 270.98,76.56 			"/>
		</g>
	</g>
	<g class="st2">
		<g>
			<polygon class="st1" points="332.93,76.56 270.95,76.56 239.96,130.23 270.95,183.91 332.93,183.91 363.92,130.23 			"/>
		</g>
	</g>
	<g class="st0">
		<g>
			<polygon class="st1" points="146.47,76.56 84.49,76.56 53.5,130.23 84.49,183.91 146.47,183.91 177.46,130.23 			"/>
		</g>
	</g>
	<g class="st3">
		<g>
			<polygon class="st1" points="239.99,130.23 178.01,130.23 147.02,183.91 178.01,237.59 239.99,237.59 270.98,183.91 			"/>
		</g>
	</g>
	<g class="st0">
		<g>
			<polygon class="st1" points="332.93,183.91 270.95,183.91 239.96,237.59 270.95,291.26 332.93,291.26 363.92,237.59 			"/>
		</g>
	</g>
	<g class="st4">
		<g>
			<polygon class="st1" points="426.51,237.59 364.53,237.59 333.54,291.26 364.53,344.94 426.51,344.94 457.5,291.26 			"/>
		</g>
	</g>
	<g class="st5">
		<g>
			<polygon class="st1" points="239.99,237.59 178.01,237.59 147.02,291.26 178.01,344.94 239.99,344.94 270.98,291.26 			"/>
		</g>
	</g>
	<g class="st6">
		<g>
			<polygon class="st1" points="333.51,291.26 271.52,291.26 240.54,344.94 271.52,398.62 333.51,398.62 364.5,344.94 			"/>
		</g>
	</g>
	<g class="st7">
		<g>
			<polygon class="st1" points="426.51,344.94 364.53,344.94 333.54,398.62 364.53,452.29 426.51,452.29 457.5,398.62 			"/>
		</g>
	</g>
	<g class="st8">
		<g>
			<polygon class="st1" points="333.51,398.62 271.52,398.62 240.54,452.29 271.52,505.97 333.51,505.97 364.5,452.29 			"/>
		</g>
	</g>
	<g class="st9">
		<g>
			<polygon class="st1" points="426.51,452.29 364.53,452.29 333.54,505.97 364.53,559.65 426.51,559.65 457.5,505.97 			"/>
		</g>
	</g>
	<g class="st0">
		<g>
			<polygon class="st1" points="426.51,559.65 364.53,559.65 333.54,613.32 364.53,667 426.51,667 457.5,613.32 			"/>
		</g>
	</g>
	<g class="st0">
		<g>
			<polygon class="st1" points="333.51,505.97 271.52,505.97 240.54,559.65 271.52,613.32 333.51,613.32 364.5,559.65 			"/>
		</g>
	</g>
	<g class="st6">
		<g>
			<polygon class="st1" points="239.99,452.29 178.01,452.29 147.02,505.97 178.01,559.65 239.99,559.65 270.98,505.97 			"/>
		</g>
	</g>
	<g class="st10">
		<g>
			<polygon class="st1" points="239.99,559.65 178.01,559.65 147.02,613.32 178.01,667 239.99,667 270.98,613.32 			"/>
		</g>
	</g>
	<g class="st11">
		<g>
			<polygon class="st1" points="147.02,398.61 85.04,398.61 54.05,452.29 85.04,505.97 147.02,505.97 178.01,452.29 			"/>
		</g>
	</g>
	<g class="st0">
		<g>
			<polygon class="st1" points="147.02,291.26 85.04,291.26 54.05,344.94 85.04,398.61 147.02,398.61 178.01,344.94 			"/>
		</g>
	</g>
	<g class="st7">
		<g>
			<polygon class="st1" points="239.99,344.94 178.01,344.94 147.02,398.61 178.01,452.29 239.99,452.29 270.98,398.61 			"/>
		</g>
	</g>
</g>
</svg>
