<?xml version="1.0" encoding="utf-8"?>
<!-- Generator: Adobe Illustrator 23.0.0, SVG Export Plug-In . SVG Version: 6.00 Build 0)  -->
<svg version="1.1" id="Layer_1" xmlns="http://www.w3.org/2000/svg" xmlns:xlink="http://www.w3.org/1999/xlink" x="0px" y="0px"
	 viewBox="0 0 15 15" style="enable-background:new 0 0 15 15;" xml:space="preserve">
<style type="text/css">
	.Drop_x0020_Shadow{fill:none;}
	.Outer_x0020_Glow_x0020_5_x0020_pt{fill:none;}
	.Blue_x0020_Neon{fill:none;stroke:#8AACDA;stroke-width:7;stroke-linecap:round;stroke-linejoin:round;}
	.Chrome_x0020_Highlight{fill:url(#SVGID_1_);stroke:#FFFFFF;stroke-width:0.3629;stroke-miterlimit:1;}
	.Jive_GS{fill:#FFDD00;}
	.Alyssa_GS{fill:#A6D0E4;}
	.st0{fill:#FFFFFF;}
	.st1{fill:#B12233;}
	.st2{fill:#3C3B6D;}
</style>
<linearGradient id="SVGID_1_" gradientUnits="userSpaceOnUse" x1="0" y1="0" x2="6.123234e-17" y2="-1">
	<stop  offset="0" style="stop-color:#656565"/>
	<stop  offset="0.618" style="stop-color:#1B1B1B"/>
	<stop  offset="0.6292" style="stop-color:#545454"/>
	<stop  offset="0.9831" style="stop-color:#3E3E3E"/>
</linearGradient>
<g id="XMLID_57_">
	<g id="XMLID_99_">
		<path id="XMLID_112_" class="st0" d="M13.96,10.19c-0.16,0.38-0.35,0.74-0.56,1.08H1.6c-0.22-0.34-0.41-0.7-0.56-1.08H13.96z"/>
		<path id="XMLID_111_" class="st1" d="M14.31,9.12c-0.09,0.37-0.21,0.73-0.35,1.08H1.04C0.89,9.85,0.78,9.49,0.69,9.12H14.31z"/>
		<path id="XMLID_110_" class="st0" d="M14.48,8.04c-0.03,0.37-0.08,0.73-0.17,1.08H0.69C0.61,8.77,0.55,8.41,0.52,8.04H14.48z"/>
		<path id="XMLID_109_" class="st1" d="M13.4,11.27c-0.25,0.39-0.53,0.75-0.85,1.08H2.45c-0.32-0.33-0.6-0.69-0.85-1.08H13.4z"/>
		<path id="XMLID_108_" class="st1" d="M11.23,13.42C10.15,14.1,8.87,14.5,7.5,14.5c-1.37,0-2.65-0.4-3.73-1.08H11.23z"/>
		<path id="XMLID_107_" class="st0" d="M12.55,12.35c-0.39,0.41-0.84,0.77-1.32,1.08H3.77c-0.48-0.3-0.93-0.67-1.32-1.08H12.55z"/>
		<path id="XMLID_106_" class="st0" d="M12.55,2.65H2.45c0.39-0.41,0.84-0.77,1.32-1.08h7.45C11.71,1.88,12.15,2.24,12.55,2.65z"/>
		<path id="XMLID_105_" class="st1" d="M11.23,1.58H3.77C4,1.44,4.23,1.31,4.47,1.19c0.02-0.01,0.04-0.02,0.07-0.03
			C4.61,1.12,4.7,1.09,4.78,1.05c0.04-0.02,0.07-0.03,0.11-0.04C5.7,0.68,6.58,0.5,7.5,0.5c0,0,0,0,0,0
			C8.87,0.5,10.15,0.89,11.23,1.58z"/>
		<path id="XMLID_104_" class="st1" d="M13.4,3.73H1.6c0.06-0.1,0.13-0.19,0.19-0.29C1.8,3.44,1.81,3.43,1.81,3.42
			c0.19-0.27,0.41-0.53,0.64-0.77h10.09C12.86,2.98,13.15,3.34,13.4,3.73z"/>
		<path id="XMLID_103_" class="st1" d="M14.31,5.88H0.69c0.09-0.37,0.21-0.73,0.35-1.08h12.92C14.11,5.15,14.22,5.51,14.31,5.88z"/>
		<path id="XMLID_102_" class="st0" d="M13.96,4.81H1.04C1.07,4.74,1.1,4.67,1.13,4.6c0.08-0.17,0.16-0.33,0.25-0.49
			C1.45,3.98,1.52,3.86,1.6,3.73H13.4C13.61,4.07,13.8,4.43,13.96,4.81z"/>
		<path id="XMLID_101_" class="st0" d="M14.48,6.96H0.52c0-0.04,0.01-0.09,0.01-0.13C0.54,6.7,0.56,6.57,0.58,6.44
			c0.03-0.19,0.06-0.37,0.11-0.55h13.62C14.39,6.23,14.45,6.59,14.48,6.96z"/>
		<path id="XMLID_100_" class="st1" d="M14.5,7.5c0,0.18-0.01,0.36-0.02,0.54H0.52C0.51,7.86,0.5,7.68,0.5,7.5
			c0-0.18,0.01-0.36,0.02-0.54h13.96C14.49,7.14,14.5,7.32,14.5,7.5z"/>
	</g>
	<g id="XMLID_58_">
		<path id="XMLID_98_" class="st2" d="M7.5,0.5v7.54H0.52C0.51,7.86,0.5,7.68,0.5,7.5c0-0.18,0.01-0.36,0.02-0.54
			c0-0.04,0.01-0.09,0.01-0.13C0.54,6.7,0.56,6.57,0.58,6.44c0.03-0.19,0.06-0.37,0.11-0.55c0.09-0.37,0.21-0.73,0.35-1.08
			C1.07,4.74,1.1,4.67,1.13,4.6c0.08-0.17,0.16-0.33,0.25-0.49C1.45,3.98,1.52,3.86,1.6,3.73c0.06-0.1,0.13-0.19,0.19-0.29
			C1.8,3.44,1.81,3.43,1.81,3.42c0.19-0.27,0.41-0.53,0.64-0.77c0.39-0.41,0.84-0.77,1.32-1.08C4,1.44,4.23,1.31,4.47,1.19
			c0.02-0.01,0.04-0.02,0.07-0.03C4.61,1.12,4.7,1.09,4.78,1.05c0.04-0.02,0.07-0.03,0.11-0.04C5.7,0.68,6.58,0.5,7.5,0.5z"/>
		<g id="XMLID_59_">
			<g id="XMLID_95_">
				<polygon id="XMLID_97_" class="st0" points="6.61,0.86 6.71,1.16 7.03,1.16 6.77,1.35 6.87,1.65 6.61,1.46 6.36,1.65 6.45,1.35 
					6.2,1.16 6.51,1.16 				"/>
				<path id="XMLID_96_" class="st0" d="M5.07,1.58L5.1,1.65L5,1.58L4.84,1.46L4.69,1.58l-0.1,0.07l0.02-0.07l0.07-0.23L4.47,1.19
					c0.02-0.01,0.04-0.02,0.07-0.03h0.21l0.04-0.11c0.04-0.02,0.07-0.03,0.11-0.04l0.05,0.16h0.32L5,1.35L5.07,1.58z"/>
			</g>
			<g id="XMLID_91_">
				<polygon id="XMLID_94_" class="st0" points="6.61,2.37 6.71,2.67 7.03,2.67 6.77,2.86 6.87,3.16 6.61,2.97 6.36,3.16 6.45,2.86 
					6.2,2.67 6.51,2.67 				"/>
				<polygon id="XMLID_93_" class="st0" points="4.84,2.37 4.94,2.67 5.26,2.67 5,2.86 5.1,3.16 4.84,2.97 4.58,3.16 4.68,2.86 
					4.42,2.67 4.74,2.67 				"/>
				<polygon id="XMLID_92_" class="st0" points="3.07,2.37 3.17,2.67 3.49,2.67 3.23,2.86 3.33,3.16 3.07,2.97 2.81,3.16 2.91,2.86 
					2.65,2.67 2.97,2.67 				"/>
			</g>
			<g id="XMLID_86_">
				<polygon id="XMLID_90_" class="st0" points="6.61,3.87 6.71,4.18 7.03,4.18 6.77,4.36 6.87,4.67 6.61,4.48 6.36,4.67 6.45,4.36 
					6.2,4.18 6.51,4.18 				"/>
				<polygon id="XMLID_89_" class="st0" points="4.84,3.87 4.94,4.18 5.26,4.18 5,4.36 5.1,4.67 4.84,4.48 4.58,4.67 4.68,4.36 
					4.42,4.18 4.74,4.18 				"/>
				<polygon id="XMLID_88_" class="st0" points="3.07,3.87 3.17,4.18 3.49,4.18 3.23,4.36 3.33,4.67 3.07,4.48 2.81,4.67 2.91,4.36 
					2.65,4.18 2.97,4.18 				"/>
				<path id="XMLID_87_" class="st0" d="M1.46,4.36l0.1,0.3L1.3,4.48L1.13,4.6c0.08-0.17,0.16-0.33,0.25-0.49L1.4,4.18h0.32
					L1.46,4.36z"/>
			</g>
			<g id="XMLID_81_">
				<polygon id="XMLID_85_" class="st0" points="6.61,5.38 6.71,5.68 7.03,5.68 6.77,5.87 6.87,6.17 6.61,5.99 6.36,6.17 6.45,5.87 
					6.2,5.68 6.51,5.68 				"/>
				<polygon id="XMLID_84_" class="st0" points="4.84,5.38 4.94,5.68 5.26,5.68 5,5.87 5.1,6.17 4.84,5.99 4.58,6.17 4.68,5.87 
					4.42,5.68 4.74,5.68 				"/>
				<polygon id="XMLID_83_" class="st0" points="3.07,5.38 3.17,5.68 3.49,5.68 3.23,5.87 3.33,6.17 3.07,5.99 2.81,6.17 2.91,5.87 
					2.65,5.68 2.97,5.68 				"/>
				<polygon id="XMLID_82_" class="st0" points="1.3,5.38 1.39,5.68 1.71,5.68 1.46,5.87 1.55,6.17 1.3,5.99 1.04,6.17 1.14,5.87 
					0.88,5.68 1.2,5.68 				"/>
			</g>
			<g id="XMLID_76_">
				<polygon id="XMLID_80_" class="st0" points="6.61,6.89 6.71,7.19 7.03,7.19 6.77,7.38 6.87,7.68 6.61,7.49 6.36,7.68 6.45,7.38 
					6.2,7.19 6.51,7.19 				"/>
				<polygon id="XMLID_79_" class="st0" points="4.84,6.89 4.94,7.19 5.26,7.19 5,7.38 5.1,7.68 4.84,7.49 4.58,7.68 4.68,7.38 
					4.42,7.19 4.74,7.19 				"/>
				<polygon id="XMLID_78_" class="st0" points="3.07,6.89 3.17,7.19 3.49,7.19 3.23,7.38 3.33,7.68 3.07,7.49 2.81,7.68 2.91,7.38 
					2.65,7.19 2.97,7.19 				"/>
				<polygon id="XMLID_77_" class="st0" points="1.3,6.89 1.39,7.19 1.71,7.19 1.46,7.38 1.55,7.68 1.3,7.49 1.04,7.68 1.14,7.38 
					0.88,7.19 1.2,7.19 				"/>
			</g>
			<g id="XMLID_71_">
				<polygon id="XMLID_75_" class="st0" points="5.73,6.13 5.83,6.44 6.14,6.44 5.89,6.62 5.99,6.93 5.73,6.74 5.47,6.93 5.57,6.62 
					5.31,6.44 5.63,6.44 				"/>
				<polygon id="XMLID_74_" class="st0" points="3.95,6.13 4.05,6.44 4.37,6.44 4.11,6.62 4.21,6.93 3.95,6.74 3.7,6.93 3.8,6.62 
					3.54,6.44 3.86,6.44 				"/>
				<polygon id="XMLID_73_" class="st0" points="2.18,6.13 2.28,6.44 2.6,6.44 2.34,6.62 2.44,6.93 2.18,6.74 1.92,6.93 2.02,6.62 
					1.77,6.44 2.08,6.44 				"/>
				<path id="XMLID_72_" class="st0" d="M0.57,6.62l0.1,0.3l-0.14-0.1C0.54,6.7,0.56,6.57,0.58,6.44h0.25L0.57,6.62z"/>
			</g>
			<g id="XMLID_67_">
				<polygon id="XMLID_70_" class="st0" points="5.73,4.63 5.83,4.93 6.14,4.93 5.89,5.12 5.99,5.42 5.73,5.23 5.47,5.42 5.57,5.12 
					5.31,4.93 5.63,4.93 				"/>
				<polygon id="XMLID_69_" class="st0" points="3.95,4.63 4.05,4.93 4.37,4.93 4.11,5.12 4.21,5.42 3.95,5.23 3.7,5.42 3.8,5.12 
					3.54,4.93 3.86,4.93 				"/>
				<polygon id="XMLID_68_" class="st0" points="2.18,4.63 2.28,4.93 2.6,4.93 2.34,5.12 2.44,5.42 2.18,5.23 1.92,5.42 2.02,5.12 
					1.77,4.93 2.08,4.93 				"/>
			</g>
			<g id="XMLID_63_">
				<polygon id="XMLID_66_" class="st0" points="5.73,3.12 5.83,3.42 6.14,3.42 5.89,3.61 5.99,3.91 5.73,3.72 5.47,3.91 5.57,3.61 
					5.31,3.42 5.63,3.42 				"/>
				<polygon id="XMLID_65_" class="st0" points="3.95,3.12 4.05,3.42 4.37,3.42 4.11,3.61 4.21,3.91 3.95,3.72 3.7,3.91 3.8,3.61 
					3.54,3.42 3.86,3.42 				"/>
				<path id="XMLID_64_" class="st0" d="M2.38,3.73l0.06,0.18L2.19,3.73L2.18,3.72L2.17,3.73L1.92,3.91l0.06-0.18l0.04-0.12
					L1.8,3.45C1.8,3.44,1.81,3.43,1.81,3.42h0.27l0.1-0.3l0.1,0.3H2.6L2.34,3.61L2.38,3.73z"/>
			</g>
			<g id="XMLID_60_">
				<polygon id="XMLID_62_" class="st0" points="5.73,1.61 5.83,1.91 6.14,1.91 5.89,2.1 5.99,2.4 5.73,2.22 5.47,2.4 5.57,2.1 
					5.31,1.91 5.63,1.91 				"/>
				<polygon id="XMLID_61_" class="st0" points="3.95,1.61 4.05,1.91 4.37,1.91 4.11,2.1 4.21,2.4 3.95,2.22 3.7,2.4 3.8,2.1 
					3.54,1.91 3.86,1.91 				"/>
			</g>
		</g>
	</g>
</g>
</svg>
